<svg xmlns="http://www.w3.org/2000/svg" width="151.103" height="173.413" viewBox="0 0 151.103 173.413"><path d="M60.015,93Q97.721,71.275,135.439,49.63q37.706,21.656,75.413,43.323-.05,43.428.011,86.856c-25.093,14.515-50.3,28.808-75.435,43.234-25.2-14.548-50.541-28.863-75.668-43.533Q74.8,170.944,89.843,162.4c15.191,8.76,30.427,17.464,45.585,26.28,15.125-8.882,30.449-17.42,45.518-26.391-.133-11.587-.011-23.164-.067-34.751q-22.7,13.173-45.452,26.291c-25.16-14.315-50.242-28.775-75.4-43.112,0-5.91.011-11.82-.011-17.719m44.664,8.693c10.2,5.988,20.514,11.82,30.748,17.764q15.452-8.865,30.915-17.73c-10.323-5.866-20.6-11.82-30.915-17.708C125.171,89.892,114.958,95.858,104.679,101.69Z" transform="translate(-59.76 -49.63)" fill="#1e1e1e"/></svg>