<svg xmlns="http://www.w3.org/2000/svg" width="151.103" height="132.215" viewBox="0 0 151.103 132.215"><path d="M51.562,69.584a32.6,32.6,0,0,1-.453,5.515,18.348,18.348,0,0,1-2.267,4.684,11.437,11.437,0,0,1-3.7,3.249,11.244,11.244,0,0,1-5.364,1.209,10.443,10.443,0,0,1-5.364-1.284,11.142,11.142,0,0,1-3.626-3.4,13.91,13.91,0,0,1-2.04-4.76,21.755,21.755,0,0,1-.68-5.44,22.354,22.354,0,0,1,.68-5.44,13.91,13.91,0,0,1,2.04-4.76,10.7,10.7,0,0,1,3.778-3.4A10.864,10.864,0,0,1,40,54.474a10.6,10.6,0,0,1,5.44,1.284,10.9,10.9,0,0,1,3.626,3.475,17.252,17.252,0,0,1,2.04,4.835,33.49,33.49,0,0,1,.453,5.515M153.1,69.357v59.006a7.564,7.564,0,0,1-2.04,5.213A7.341,7.341,0,0,1,146,135.465H46.878a7.341,7.341,0,0,1-5.062-1.889,7.564,7.564,0,0,1-2.04-5.213v-21.23H8.271a6.4,6.4,0,0,1-4.458-1.813A6.4,6.4,0,0,1,2,100.862V37.853a6.4,6.4,0,0,1,1.813-4.458,6.4,6.4,0,0,1,4.458-1.813H49.22V9.9A6.459,6.459,0,0,1,55.868,3.25H137.01A6.459,6.459,0,0,1,143.659,9.9V62.1l7.857,4.533h.076a4.158,4.158,0,0,1,1.058,1.209,2.665,2.665,0,0,1,.453,1.511m-37.776-51.9V36.341h18.888V17.454M115.327,45.785V64.673h18.888V45.785M115.327,74.117V85.6l19.19-11.484M82.311,17.454V36.341h23.572V17.454M82.311,45.785V64.673h23.572V45.785M82.311,74.117V86.885L97.5,96.254l8.386-4.986V74.117M58.664,17.454V31.582H72.036a1.3,1.3,0,0,1,.831.3V17.378M39.776,94.44a24.474,24.474,0,0,0,9.973-1.964A21.277,21.277,0,0,0,61.761,79.028,32.8,32.8,0,0,0,63.423,68.9a29.3,29.3,0,0,0-1.587-9.746A21.847,21.847,0,0,0,57.3,51.376a20.77,20.77,0,0,0-7.177-5.213,24.032,24.032,0,0,0-9.746-1.889A26.711,26.711,0,0,0,30.03,46.163a21.324,21.324,0,0,0-7.555,5.289,23.379,23.379,0,0,0-4.684,8.16A32.548,32.548,0,0,0,16.2,69.962a29.534,29.534,0,0,0,1.587,9.822,22.934,22.934,0,0,0,4.684,7.706A21.866,21.866,0,0,0,29.8,92.627a25.887,25.887,0,0,0,9.973,1.813m9.444,31.58h77.969L77.551,95.045v5.817a6.192,6.192,0,0,1-6.271,6.271H49.22m94.439,18.057V79.632L106.488,101.92Z" transform="translate(-2 -3.25)" fill="#49606a"/></svg>