<svg xmlns="http://www.w3.org/2000/svg" width="112.201" height="176.316" viewBox="0 0 112.201 176.316"><path d="M21.029,1A16.076,16.076,0,0,0,5,17.029V161.287a16.024,16.024,0,0,0,16.029,16.029h56.1A40.086,40.086,0,0,0,117.2,137.244V17.029A16.024,16.024,0,0,0,101.172,1H21.029m8.014,24.043H93.158v56.1H29.043v-56.1m8.014,80.144h8.014v16.029H61.1v8.014H45.072v16.029H37.057V129.23H21.029v-8.014H37.057V105.187m56.1,8.014a8.014,8.014,0,1,1-8.014,8.014,8.038,8.038,0,0,1,8.014-8.014M77.129,129.23a8.014,8.014,0,1,1-8.014,8.014A8.038,8.038,0,0,1,77.129,129.23Z" transform="translate(-5 -1)" fill="#6a4955"/></svg>