<svg xmlns="http://www.w3.org/2000/svg" width="151.103" height="151.103" viewBox="0 0 151.103 151.103"><path d="M96.439,103.314a2.618,2.618,0,0,1,0,2.946C90.924,111.549,80.649,112,77.551,112c-2.947,0-13.221-.453-18.586-5.742a2.2,2.2,0,0,1,0-2.946,2.1,2.1,0,0,1,2.871,0c3.475,3.475,10.653,4.458,15.715,4.458,5.213,0,12.542-.982,15.866-4.458a2.3,2.3,0,0,1,3.022,0M68.107,85.409a7.857,7.857,0,1,0-7.857,7.857,7.9,7.9,0,0,0,7.857-7.857m26.745-7.857a7.9,7.9,0,0,0,0,15.79,7.95,7.95,0,0,0,7.857-7.857,8.067,8.067,0,0,0-7.857-7.933m58.25,0A75.551,75.551,0,1,1,77.551,2,75.773,75.773,0,0,1,153.1,77.551m-25.159,0a11.007,11.007,0,0,0-18.661-7.933c-7.555-5.44-17.906-8.915-29.465-9.368L84.88,36.6l16.395,3.551a7.862,7.862,0,1,0,7.857-8.235,7.72,7.72,0,0,0-7.026,4.458L83.747,32.447a1.41,1.41,0,0,0-1.435.3,1.763,1.763,0,0,0-.756,1.284L75.965,60.326c-11.71.378-22.288,3.853-29.994,9.368A11.017,11.017,0,1,0,33.807,87.675,24.577,24.577,0,0,0,33.58,91c0,16.772,19.719,30.749,43.971,30.749,24.4,0,44.2-13.75,44.2-30.749a17.53,17.53,0,0,0-.3-3.324A11.163,11.163,0,0,0,127.944,77.551Z" transform="translate(-2 -2)" fill="#6a5549"/></svg>