<svg xmlns="http://www.w3.org/2000/svg" width="151.103" height="105.772" viewBox="0 0 151.103 105.772"><path d="M62.441,80.551l39.211-22.665L62.441,35.221V80.551m87.337-59.157a78.108,78.108,0,0,1,2.115,14.355c.529,6.044.756,11.257.756,15.79l.453,6.346c0,16.546-1.209,28.71-3.324,36.491a17.7,17.7,0,0,1-13.07,13.07c-3.551.982-10.048,1.662-20.021,2.115-9.822.529-18.812.756-27.123.756l-12.013.453c-31.656,0-51.375-1.209-59.157-3.324a17.7,17.7,0,0,1-13.07-13.07A78.109,78.109,0,0,1,3.209,80.023c-.529-6.044-.756-11.257-.756-15.79L2,57.886C2,41.34,3.209,29.176,5.324,21.395a17.7,17.7,0,0,1,13.07-13.07c3.551-.982,10.048-1.662,20.021-2.115,9.822-.529,18.812-.756,27.123-.756L77.551,5c31.656,0,51.375,1.209,59.157,3.324A17.7,17.7,0,0,1,149.779,21.395Z" transform="translate(-2 -5)" fill="#6a4949"/></svg>